<svg width="36" height="83" viewBox="0 0 36 83" fill="none" xmlns="http://www.w3.org/2000/svg">
<path d="M32.5 16.2716C29.5 9.44721 25 7.78055 21 3.44721C16.5 1.44721 15 1.94721 13 2.44721C11.0597 2.93228 7.5 6.44721 6.5 8.94721C5.5 11.4472 6 18.4472 10.5 24.4472C15 30.4472 20.5 31.9472 23.5 32.4472C27.0905 33.0456 31 27.9472 32 25.9472C33 23.9472 34.8625 21.6457 32.5 16.2716Z" fill="black"/>
<path d="M31 39.4472C34.6 41.8472 34.1667 48.1139 33.5 50.9472C29 59.4472 22.5 57.9472 21 57.9472C19.5 57.9472 9.5 52.4472 6.5 49.9472C3.5 47.4472 2 43.9472 2 41.4472C2 38.9472 3.07067 32.9717 5.5 30.9472C8.5 28.4472 11 28.9472 13 29.4472C17.5 31.7805 27.4 37.0472 31 39.4472Z" fill="black"/>
<path d="M12.5 58.4472C15.3 56.8472 19.3333 58.1139 21 58.9472C25.1667 59.6257 33.6 62.3756 34 67.9472C34.4 73.5188 32.5 75.9354 31.5 76.4472C30 77.4472 25.7 79.6472 20.5 80.4472C14 81.4472 8 74.9472 7.5 73.9472C7 72.9472 6.5 66.4472 7.5 63.4472C8.5 60.4472 9 60.4472 12.5 58.4472Z" fill="black"/>
<path d="M32.5 16.2716C29.5 9.44721 25 7.78055 21 3.44721C16.5 1.44721 15 1.94721 13 2.44721C11.0597 2.93228 7.5 6.44721 6.5 8.94721C5.5 11.4472 6 18.4472 10.5 24.4472C15 30.4472 20.5 31.9472 23.5 32.4472C27.0905 33.0456 31 27.9472 32 25.9472C33 23.9472 34.8625 21.6457 32.5 16.2716Z" stroke="white" stroke-width="3" stroke-linejoin="round"/>
<path d="M31 39.4472C34.6 41.8472 34.1667 48.1139 33.5 50.9472C29 59.4472 22.5 57.9472 21 57.9472C19.5 57.9472 9.5 52.4472 6.5 49.9472C3.5 47.4472 2 43.9472 2 41.4472C2 38.9472 3.07067 32.9717 5.5 30.9472C8.5 28.4472 11 28.9472 13 29.4472C17.5 31.7805 27.4 37.0472 31 39.4472Z" stroke="white" stroke-width="3" stroke-linejoin="round"/>
<path d="M12.5 58.4472C15.3 56.8472 19.3333 58.1139 21 58.9472C25.1667 59.6257 33.6 62.3756 34 67.9472C34.4 73.5188 32.5 75.9354 31.5 76.4472C30 77.4472 25.7 79.6472 20.5 80.4472C14 81.4472 8 74.9472 7.5 73.9472C7 72.9472 6.5 66.4472 7.5 63.4472C8.5 60.4472 9 60.4472 12.5 58.4472Z" stroke="white" stroke-width="3" stroke-linejoin="round"/>
</svg>
