<svg width="195" height="245" viewBox="0 0 195 245" fill="none" xmlns="http://www.w3.org/2000/svg">
<path d="M49.0707 105.343L31.102 95.58L31.8067 73.7913C43.0261 79.8017 39.2923 77.7869 46.772 81.7939C54.2516 85.8008 55.7764 82.2057 48.7754 78.054L32.3066 69.2913L32.8012 46.58C32.8012 46.58 64.2595 68.243 67.602 69.58C70.102 70.58 70.602 66.9371 69.102 66.08C66.7686 64.7466 32.8012 41.58 32.8012 41.58C32.8012 41.58 4.60197 21.08 3.10197 18.58C1.90197 16.58 1.60199 11.58 2.60197 9.57996C4.02005 6.74374 4.10199 2.57996 9.10199 3.07996C12.0871 3.37848 21.4353 6.57996 25.602 9.07996C56.102 26.4133 118.502 62.48 124.102 66.08C131.102 70.58 138.602 69.58 133.602 48.58C129.602 31.78 130.935 16.9133 132.102 11.58C132.269 9.91329 133.902 5.87996 139.102 3.07996C144.302 0.279963 145.935 3.57996 146.102 5.57996C146.769 8.74663 148.502 16.28 150.102 21.08C152.102 27.08 151.102 25.08 156.102 31.58C161.102 38.08 161.102 38.08 161.102 45.58C161.102 53.08 163.602 73.58 164.102 73.58C164.602 73.58 163.602 74.58 166.102 80.58C168.602 86.58 167.602 92.08 168.102 92.08C168.602 92.08 176.102 120.58 175.602 131.08C175.102 141.58 176.102 142.08 173.102 148.08C170.702 152.88 185.769 189.08 193.602 206.58V244.08H124.102C121.269 230.08 113.602 199.68 105.602 190.08C97.602 180.48 86.602 174.413 82.102 172.58C77.102 169.747 58.7613 154.083 48.602 148.08C37.602 141.58 30.3012 142.367 15.102 113.652L39.602 105.08C50.8214 111.09 39.5877 105.076 47.0673 109.082C54.5469 113.089 56.0717 109.494 49.0707 105.343Z" fill="black"/>
<path d="M31.8181 94.2619C31.0902 93.8664 30.1795 94.1359 29.784 94.8639C29.3885 95.5918 29.658 96.5025 30.3859 96.898L31.8181 94.2619ZM49.0707 105.343L49.8358 104.052C49.8197 104.043 49.8033 104.034 49.7868 104.025L49.0707 105.343ZM40.3103 103.758C39.5801 103.367 38.671 103.641 38.2798 104.372C37.8886 105.102 38.1634 106.011 38.8937 106.402L40.3103 103.758ZM33.0112 67.967C32.2799 67.5779 31.3716 67.8553 30.9824 68.5867C30.5933 69.318 30.8707 70.2263 31.602 70.6155L33.0112 67.967ZM48.7754 78.054L49.5405 76.7638C49.5206 76.752 49.5004 76.7407 49.48 76.7298L48.7754 78.054ZM32.515 72.4691C31.7847 72.0779 30.8756 72.3527 30.4844 73.083C30.0932 73.8132 30.3681 74.7223 31.0983 75.1135L32.515 72.4691ZM82.102 172.58L81.3624 173.885C81.4184 173.917 81.4764 173.945 81.536 173.969L82.102 172.58ZM48.602 148.08L47.8389 149.371L47.8389 149.371L48.602 148.08ZM173.102 148.08L171.76 147.409L171.76 147.409L173.102 148.08ZM150.102 21.08L151.525 20.6056L151.525 20.6056L150.102 21.08ZM146.102 5.57996L144.607 5.70454C144.612 5.76652 144.621 5.82812 144.634 5.88898L146.102 5.57996ZM139.102 3.07996L138.391 1.75926L138.391 1.75926L139.102 3.07996ZM132.102 11.58L133.567 11.9005C133.58 11.844 133.589 11.7868 133.595 11.7292L132.102 11.58ZM133.602 48.58L135.061 48.2325L133.602 48.58ZM124.102 66.08L124.913 64.8182L124.913 64.8182L124.102 66.08ZM25.602 9.07996L24.8302 10.3662C24.8404 10.3723 24.8506 10.3782 24.8609 10.3841L25.602 9.07996ZM9.10199 3.07996L8.95273 4.57252L9.10199 3.07996ZM2.60197 9.57996L1.26033 8.90915L2.60197 9.57996ZM3.10197 18.58L4.38821 17.8082L3.10197 18.58ZM32.8012 41.58L31.9192 42.7932C31.9313 42.8021 31.9436 42.8107 31.956 42.8192L32.8012 41.58ZM69.102 66.08L68.3578 67.3823L68.3578 67.3823L69.102 66.08ZM30.3859 96.898L48.3546 106.661L49.7868 104.025L31.8181 94.2619L30.3859 96.898ZM48.3056 106.633C49.9705 107.62 51.037 108.523 51.617 109.21C51.9092 109.556 52.0307 109.792 52.0711 109.906C52.113 110.025 52.0256 109.875 52.1475 109.622C52.2813 109.344 52.4948 109.293 52.4493 109.305C52.3862 109.322 52.1698 109.353 51.7411 109.289C50.8923 109.162 49.5662 108.72 47.7756 107.76L46.3589 110.405C48.3081 111.449 49.9775 112.059 51.2995 112.256C51.9562 112.354 52.619 112.364 53.2189 112.205C53.8364 112.041 54.4966 111.659 54.851 110.922C55.1934 110.21 55.1003 109.475 54.9001 108.908C54.6985 108.336 54.3417 107.786 53.9091 107.274C53.0397 106.245 51.6715 105.141 49.8358 104.052L48.3056 106.633ZM47.7756 107.76C45.905 106.758 45.206 106.384 45.0332 106.291C45.0111 106.279 44.9999 106.273 44.9961 106.271C44.995 106.27 44.9967 106.271 44.9997 106.273C45.0002 106.273 45.0061 106.276 45.0137 106.28C45.0188 106.283 45.0348 106.293 45.0456 106.299C45.0836 106.322 45.6831 108.108 44.1092 109.077C43.8807 109.034 43.6406 108.945 43.6196 108.935C43.6117 108.931 43.5996 108.925 43.5956 108.923C43.5892 108.92 43.5843 108.917 43.5836 108.917C43.5809 108.916 43.5794 108.915 43.5804 108.915C43.5892 108.92 43.6209 108.937 43.6703 108.963C43.766 109.014 43.9121 109.092 44.0305 109.156C44.0894 109.187 44.1415 109.215 44.1765 109.234C44.1934 109.243 44.2081 109.25 44.2176 109.255C44.22 109.257 44.2233 109.258 44.2266 109.26C44.2283 109.261 44.231 109.262 44.2343 109.264C44.2352 109.265 44.2451 109.27 44.2575 109.276C44.2668 109.281 44.3013 109.297 44.3268 109.308C44.6149 109.4 46.3553 108.386 45.7813 106.701C45.7418 106.675 45.6896 106.642 45.6775 106.635C45.6716 106.632 45.6624 106.626 45.6589 106.624C45.6492 106.619 45.6407 106.614 45.64 106.614C45.6131 106.599 45.4753 106.525 45.1586 106.356C44.5169 106.011 43.1151 105.26 40.3103 103.758L38.8937 106.402C41.6986 107.905 43.0998 108.656 43.741 108.999C43.9013 109.085 44.0139 109.146 44.0889 109.186C44.1264 109.206 44.1543 109.221 44.174 109.232C44.1839 109.237 44.1914 109.241 44.1969 109.244C44.2029 109.247 44.2049 109.248 44.2046 109.248C44.2044 109.248 44.2034 109.248 44.2018 109.247C44.201 109.246 44.1967 109.244 44.1911 109.241C44.1878 109.239 44.1788 109.234 44.1731 109.231C44.1611 109.224 44.1089 109.191 44.0695 109.165C43.4955 107.48 45.2359 106.465 45.524 106.557C45.5494 106.569 45.5838 106.585 45.593 106.59C45.6139 106.6 45.6341 106.611 45.62 106.603C45.6152 106.601 45.6043 106.595 45.587 106.586C45.5535 106.568 45.5025 106.541 45.4436 106.509C45.3265 106.447 45.1786 106.368 45.0828 106.317C45.0363 106.292 44.9978 106.271 44.9822 106.263C44.9801 106.262 44.9762 106.26 44.972 106.258C44.9705 106.257 44.965 106.254 44.9581 106.251C44.9538 106.248 44.9417 106.242 44.9336 106.238C44.9125 106.228 44.6723 106.14 44.4438 106.096C42.8699 107.066 43.4695 108.851 43.5075 108.875C43.5184 108.881 43.5346 108.89 43.5398 108.893C43.5478 108.898 43.5543 108.901 43.5556 108.902C43.5602 108.905 43.5643 108.907 43.5665 108.908C43.5757 108.913 43.5916 108.922 43.6129 108.933C43.7881 109.027 44.4897 109.403 46.3589 110.405L47.7756 107.76ZM31.602 70.6155L48.0708 79.3783L49.48 76.7298L33.0112 67.967L31.602 70.6155ZM48.0103 79.3442C49.6752 80.3315 50.7417 81.2342 51.3217 81.921C51.6138 82.2671 51.7354 82.5029 51.7758 82.6175C51.8177 82.7362 51.7303 82.5865 51.8522 82.3332C51.986 82.0549 52.1994 82.0042 52.154 82.0163C52.0909 82.033 51.8745 82.0639 51.4458 82.0001C50.597 81.8737 49.2709 81.4309 47.4803 80.4716L46.0636 83.1161C48.0128 84.1603 49.6822 84.7706 51.0041 84.9674C51.6609 85.0652 52.3237 85.0751 52.9235 84.9159C53.5411 84.752 54.2013 84.3703 54.5557 83.6336C54.8981 82.9218 54.8049 82.1862 54.6048 81.6191C54.4032 81.0478 54.0463 80.4978 53.6138 79.9856C52.7444 78.9559 51.3762 77.8524 49.5405 76.7638L48.0103 79.3442ZM47.4803 80.4716C43.7393 78.4675 42.8018 77.969 41.3974 77.2202C39.9947 76.4724 38.1242 75.474 32.515 72.4691L31.0983 75.1135C36.7085 78.1189 38.5809 79.1184 39.9861 79.8675C41.3895 80.6157 42.325 81.1133 46.0636 83.1161L47.4803 80.4716ZM125.572 243.782C124.148 236.744 121.511 225.593 118.222 214.986C116.578 209.682 114.764 204.492 112.849 200.009C110.944 195.553 108.897 191.691 106.754 189.12L104.45 191.04C106.307 193.269 108.218 196.807 110.09 201.188C111.951 205.543 113.73 210.628 115.357 215.874C118.61 226.367 121.223 237.416 122.632 244.377L125.572 243.782ZM106.754 189.12C98.5572 179.283 87.3302 173.09 82.6679 171.191L81.536 173.969C85.8738 175.736 96.6467 181.677 104.45 191.04L106.754 189.12ZM82.8415 171.275C81.6955 170.626 79.6942 169.181 77.0942 167.206C74.5204 165.251 71.4551 162.851 68.2054 160.333C61.7454 155.328 54.5419 149.848 49.3651 146.789L47.8389 149.371C52.8214 152.316 59.8679 157.668 66.368 162.704C69.5984 165.207 72.6907 167.629 75.2796 169.595C77.8422 171.542 80.0084 173.118 81.3624 173.885L82.8415 171.275ZM49.3651 146.789C46.5719 145.138 43.951 143.916 41.5586 142.667C39.1362 141.402 36.8185 140.049 34.3809 138.039C29.5015 134.016 23.9876 127.233 16.4277 112.951L13.7763 114.354C21.4155 128.786 27.1516 135.967 32.4724 140.354C35.135 142.549 37.655 144.013 40.1701 145.326C42.7154 146.655 45.1321 147.772 47.8389 149.371L49.3651 146.789ZM194.971 205.967C191.062 197.234 185.35 183.839 180.919 172.04C178.701 166.136 176.817 160.663 175.637 156.386C175.046 154.243 174.644 152.442 174.459 151.056C174.367 150.363 174.334 149.81 174.35 149.391C174.357 149.183 174.376 149.026 174.399 148.912C174.422 148.796 174.444 148.751 174.444 148.751L171.76 147.409C171.471 147.988 171.374 148.658 171.352 149.281C171.328 149.928 171.38 150.662 171.486 151.452C171.696 153.033 172.139 154.984 172.745 157.183C173.96 161.59 175.882 167.161 178.11 173.095C182.57 184.971 188.309 198.426 192.233 207.193L194.971 205.967ZM174.444 148.751C175.995 145.648 176.575 143.834 176.784 141.396C176.883 140.237 176.899 138.941 176.922 137.344C176.946 135.731 176.976 133.751 177.1 131.151L174.104 131.009C173.977 133.659 173.946 135.679 173.922 137.3C173.899 138.938 173.883 140.111 173.795 141.139C173.629 143.075 173.209 144.512 171.76 147.409L174.444 148.751ZM177.1 131.151C177.361 125.666 175.558 115.718 173.691 107.317C172.749 103.077 171.775 99.1649 171.003 96.3062C170.618 94.879 170.28 93.7024 170.019 92.8744C169.89 92.4649 169.772 92.1163 169.672 91.8583C169.624 91.7365 169.564 91.5908 169.493 91.4579C169.462 91.3987 169.396 91.2792 169.294 91.1542C169.244 91.0927 169.146 90.9802 168.997 90.872C168.86 90.7726 168.548 90.58 168.102 90.58V93.58C167.664 93.58 167.36 93.3909 167.233 93.2983C167.093 93.197 167.006 93.0949 166.967 93.0471C166.887 92.9496 166.847 92.8711 166.844 92.8662C166.831 92.8418 166.841 92.8574 166.876 92.9468C166.94 93.1115 167.035 93.3854 167.158 93.7758C167.401 94.5474 167.727 95.6794 168.107 97.0881C168.866 99.9013 169.83 103.77 170.763 107.968C172.646 116.442 174.342 125.994 174.104 131.009L177.1 131.151ZM168.102 90.58C168.922 90.58 169.291 91.1944 169.368 91.3491C169.452 91.5183 169.463 91.6411 169.457 91.5998C169.449 91.548 169.438 91.4037 169.43 91.0884C169.415 90.5238 169.414 89.587 169.349 88.4919C169.219 86.274 168.825 83.2155 167.487 80.003L164.717 81.1569C165.879 83.9444 166.235 86.6359 166.355 88.668C166.415 89.698 166.414 90.5111 166.431 91.1653C166.438 91.4593 166.45 91.7916 166.493 92.064C166.512 92.1849 166.556 92.4316 166.681 92.6844C166.8 92.9226 167.22 93.58 168.102 93.58V90.58ZM167.487 80.003C166.275 77.0954 165.945 75.4784 165.84 74.6439C165.78 74.1578 165.798 74.0555 165.769 73.7054C165.764 73.6499 165.746 73.2157 165.487 72.8172C165.317 72.5567 165.071 72.3414 164.764 72.2114C164.491 72.0955 164.244 72.08 164.102 72.08V75.08C164.022 75.08 163.827 75.0723 163.594 74.9739C163.329 74.8615 163.115 74.6735 162.971 74.4521C162.763 74.1317 162.768 73.8225 162.779 73.9545C162.781 73.9794 162.799 74.5021 162.864 75.016C163.009 76.1815 163.429 78.0645 164.717 81.1569L167.487 80.003ZM164.102 72.08C164.746 72.08 165.116 72.476 165.199 72.5693C165.317 72.7025 165.377 72.8219 165.393 72.8533C165.43 72.9288 165.438 72.9669 165.422 72.9153C165.397 72.8318 165.355 72.6629 165.3 72.3874C165.191 71.85 165.057 71.0497 164.906 70.038C164.605 68.022 164.247 65.2438 163.905 62.2234C163.217 56.1571 162.602 49.2348 162.602 45.58H159.602C159.602 49.4251 160.237 56.5028 160.924 62.5615C161.269 65.6036 161.631 68.4191 161.939 70.4813C162.092 71.5086 162.235 72.3685 162.359 72.9815C162.42 73.2812 162.483 73.5601 162.55 73.7805C162.58 73.8809 162.63 74.035 162.706 74.1886C162.741 74.259 162.819 74.4078 162.955 74.5609C163.056 74.6739 163.442 75.08 164.102 75.08V72.08ZM162.602 45.58C162.602 41.9322 162.622 39.7512 161.89 37.7005C161.166 35.6737 159.726 33.8309 157.291 30.6654L154.913 32.4945C157.478 35.829 158.538 37.2363 159.064 38.7095C159.582 40.1587 159.602 41.7277 159.602 45.58H162.602ZM157.291 30.6654C156.038 29.0366 155.146 27.9207 154.519 27.1177C153.876 26.2955 153.527 25.8185 153.27 25.3819C152.751 24.4991 152.573 23.7493 151.525 20.6056L148.679 21.5543C149.631 24.4106 149.953 25.6608 150.684 26.903C151.052 27.5289 151.515 28.1457 152.154 28.9641C152.808 29.8017 153.666 30.8734 154.913 32.4945L157.291 30.6654ZM151.525 20.6056C149.954 15.892 148.235 8.42953 147.57 5.27095L144.634 5.88898C145.303 9.06373 147.05 16.6679 148.679 21.5543L151.525 20.6056ZM147.597 5.45539C147.494 4.22037 146.934 2.36544 145.326 1.28485C143.594 0.121047 141.238 0.226307 138.391 1.75926L139.813 4.40067C142.166 3.13362 143.227 3.48888 143.653 3.77507C144.203 4.14449 144.543 4.93956 144.607 5.70454L147.597 5.45539ZM138.391 1.75926C132.782 4.77937 130.829 9.23479 130.609 11.4307L133.595 11.7292C133.708 10.5918 135.022 6.98056 139.813 4.40067L138.391 1.75926ZM130.637 11.2594C129.424 16.8009 128.088 31.8962 132.143 48.9274L135.061 48.2325C131.116 31.6637 132.446 17.0257 133.567 11.9005L130.637 11.2594ZM132.143 48.9274C133.376 54.1083 133.815 57.9623 133.712 60.7514C133.609 63.5682 132.962 65.0997 132.247 65.8775C131.598 66.5846 130.697 66.875 129.438 66.7099C128.131 66.5386 126.564 65.8793 124.913 64.8182L123.291 67.3417C125.14 68.5306 127.135 69.4338 129.048 69.6844C131.006 69.9412 132.981 69.5129 134.456 67.9074C135.867 66.3727 136.595 63.998 136.71 60.8616C136.827 57.6976 136.328 53.5516 135.061 48.2325L132.143 48.9274ZM124.913 64.8182C119.269 61.1898 56.8203 25.0962 26.3431 7.77584L24.8609 10.3841C55.3837 27.7304 117.735 63.7701 123.291 67.3417L124.913 64.8182ZM26.3737 7.79372C24.1603 6.46563 20.6689 5.00068 17.412 3.84127C14.1869 2.69321 10.9467 1.75695 9.25125 1.58741L8.95273 4.57252C10.2424 4.70149 13.1689 5.51523 16.4059 6.66754C19.611 7.80849 22.8771 9.19428 24.8302 10.3662L26.3737 7.79372ZM9.25125 1.58741C7.79471 1.44175 6.55401 1.62298 5.5087 2.14261C4.45951 2.66417 3.74698 3.45721 3.23232 4.29103C2.73206 5.10153 2.38826 6.00348 2.10367 6.78315C1.80098 7.61238 1.56624 8.29731 1.26033 8.90915L3.94362 10.2508C4.34674 9.4445 4.65403 8.54537 4.92179 7.81183C5.20764 7.02873 5.46272 6.38919 5.7852 5.86673C6.09329 5.36758 6.42737 5.03616 6.84411 4.829C7.26472 4.61991 7.90927 4.46817 8.95273 4.57252L9.25125 1.58741ZM1.26033 8.90915C0.577922 10.274 0.425933 12.3544 0.529421 14.1655C0.633769 15.9916 1.0266 18.0365 1.81573 19.3517L4.38821 17.8082C3.97734 17.1234 3.62018 15.6683 3.52454 13.9944C3.42803 12.3055 3.62604 10.8859 3.94362 10.2508L1.26033 8.90915ZM1.81573 19.3517C2.01518 19.6841 2.33546 20.0258 2.62473 20.3136C2.94576 20.633 3.35225 21.005 3.82136 21.4152C4.76146 22.2373 6.0067 23.2596 7.44081 24.4017C10.3121 26.6885 13.9909 29.4953 17.6131 32.2167C21.2373 34.9396 24.8135 37.5835 27.4831 39.5463C28.818 40.5278 29.9267 41.3392 30.7017 41.9054C31.0893 42.1885 31.3934 42.4103 31.6008 42.5614C31.7045 42.637 31.784 42.6949 31.8376 42.7339C31.8644 42.7534 31.8847 42.7682 31.8984 42.7781C31.9052 42.7831 31.9104 42.7869 31.9139 42.7894C31.9156 42.7906 31.9169 42.7916 31.9178 42.7922C31.9182 42.7926 31.9186 42.7928 31.9188 42.793C31.919 42.7931 31.9192 42.7932 32.8012 41.58C33.6832 40.3667 33.6831 40.3666 33.6829 40.3665C33.6827 40.3663 33.6824 40.3661 33.682 40.3658C33.6812 40.3652 33.6799 40.3643 33.6782 40.3631C33.6749 40.3606 33.6698 40.3569 33.6631 40.352C33.6496 40.3423 33.6295 40.3276 33.6029 40.3083C33.5497 40.2696 33.4707 40.212 33.3675 40.1368C33.161 39.9864 32.8579 39.7653 32.4714 39.483C31.6984 38.9183 30.5923 38.1087 29.2602 37.1293C26.5955 35.1701 23.0282 32.5328 19.4151 29.8182C15.7999 27.1021 12.1477 24.3152 9.30976 22.055C7.88926 20.9237 6.68534 19.9344 5.79619 19.1568C5.35067 18.7673 4.99751 18.4424 4.74067 18.1869C4.45207 17.8998 4.37627 17.7883 4.38821 17.8082L1.81573 19.3517ZM32.8012 41.58C31.956 42.8192 31.9561 42.8193 31.9564 42.8194C31.9567 42.8196 31.957 42.8199 31.9576 42.8202C31.9586 42.821 31.9602 42.822 31.9622 42.8234C31.9663 42.8262 31.9725 42.8304 31.9807 42.836C31.997 42.8472 32.0214 42.8638 32.0536 42.8857C32.118 42.9296 32.2135 42.9948 32.3383 43.0798C32.5877 43.2499 32.9538 43.4994 33.4206 43.8175C34.3541 44.4537 35.6902 45.364 37.3009 46.4605C40.5222 48.6535 44.8418 51.5915 49.2345 54.5713C57.9691 60.4964 67.1248 66.6778 68.3578 67.3823L69.8462 64.7776C68.7458 64.1488 59.7512 58.0802 50.9186 52.0886C46.5278 49.1101 42.2097 46.1731 38.9892 43.9806C37.379 42.8844 36.0432 41.9744 35.11 41.3385C34.6434 41.0205 34.2775 40.771 34.0282 40.6011C33.9035 40.5161 33.8081 40.451 33.7438 40.4072C33.7116 40.3852 33.6873 40.3686 33.6709 40.3575C33.6628 40.3519 33.6566 40.3477 33.6525 40.3449C33.6505 40.3435 33.6489 40.3425 33.6479 40.3418C33.6474 40.3414 33.647 40.3412 33.6467 40.341C33.6465 40.3408 33.6464 40.3407 32.8012 41.58ZM68.3578 67.3823C68.2949 67.3464 68.355 67.3458 68.4075 67.5335C68.4585 67.7154 68.4585 67.9401 68.4075 68.1219C68.355 68.3097 68.2949 68.309 68.3578 68.2731C68.3926 68.2533 68.419 68.2521 68.4123 68.2522C68.3989 68.2525 68.319 68.2512 68.1591 68.1872L67.0449 70.9727C67.9931 71.352 68.9877 71.3684 69.8462 70.8779C70.6591 70.4134 71.099 69.636 71.2964 68.9308C71.4955 68.2199 71.4955 67.4356 71.2964 66.7246C71.099 66.0195 70.659 65.2421 69.8462 64.7776L68.3578 67.3823ZM68.1591 68.1872C67.8819 68.0764 67.1392 67.6665 65.9285 66.9275C64.7656 66.2177 63.2758 65.2703 61.5708 64.1639C58.1626 61.9521 53.9254 59.1246 49.7866 56.3348C45.649 53.5458 41.6151 50.7981 38.6153 48.7474C37.1155 47.7221 35.8744 46.8712 35.0083 46.2767C34.5753 45.9795 34.2361 45.7464 34.0052 45.5876C33.8897 45.5082 33.8013 45.4474 33.7418 45.4064C33.7121 45.386 33.6896 45.3705 33.6745 45.3601C33.667 45.3549 33.6613 45.351 33.6575 45.3484C33.6557 45.3471 33.6542 45.3461 33.6533 45.3455C33.6528 45.3452 33.6525 45.3449 33.6523 45.3448C33.652 45.3446 33.6519 45.3445 32.8012 46.58C31.9504 47.8154 31.9506 47.8155 31.9508 47.8156C31.9511 47.8158 31.9514 47.8161 31.9519 47.8164C31.9529 47.8171 31.9544 47.8181 31.9563 47.8194C31.9601 47.822 31.9659 47.826 31.9735 47.8312C31.9887 47.8417 32.0113 47.8573 32.0412 47.8778C32.101 47.919 32.1896 47.98 32.3054 48.0596C32.5369 48.2188 32.8768 48.4524 33.3105 48.7501C34.1779 49.3455 35.4206 50.1975 36.9223 51.224C39.9253 53.2769 43.9649 56.0285 48.1097 58.8224C52.2533 61.6154 56.5074 64.4544 59.9377 66.6804C61.652 67.7929 63.1682 68.7573 64.3655 69.4881C65.5149 70.1897 66.4865 70.7493 67.0449 70.9727L68.1591 68.1872Z" fill="white"/>
</svg>
